<?xml version="1.0" encoding="utf-8"?>
<!-- Generator: Adobe Illustrator 17.1.0, SVG Export Plug-In . SVG Version: 6.00 Build 0)  -->
<!DOCTYPE svg PUBLIC "-//W3C//DTD SVG 1.1//EN" "http://www.w3.org/Graphics/SVG/1.1/DTD/svg11.dtd">
<svg version="1.1" xmlns="http://www.w3.org/2000/svg" xmlns:xlink="http://www.w3.org/1999/xlink" x="0px" y="0px"
	 viewBox="0 0 42.5 42.5" enable-background="new 0 0 42.5 42.5" xml:space="preserve">
<g id="Layer_1">
</g>
<g id="Layer_2">
	<g>
		<g display="none">
			<path display="inline" fill="#FFFFFF" d="M21.2,39.7c-10.2,0-18.5-8.3-18.5-18.5S11.1,2.7,21.2,2.7c10.2,0,18.5,8.3,18.5,18.5
				S31.4,39.7,21.2,39.7z M21.2,5.7c-8.5,0-15.5,6.9-15.5,15.5s6.9,15.5,15.5,15.5s15.5-6.9,15.5-15.5S29.8,5.7,21.2,5.7z"/>
		</g>
		<path display="none" fill="#FFFFFF" d="M30.8,19.4h-7.6v-7.6c0-1.1-0.9-2-2-2s-2,0.9-2,2v7.6h-7.6c-1.1,0-2,0.9-2,2s0.9,2,2,2h7.6
			V31c0,1.1,0.9,2,2,2s2-0.9,2-2v-7.6h7.6c1.1,0,2-0.9,2-2S31.9,19.4,30.8,19.4z"/>
		<polygon fill="#FFFFFF" points="21.2,19.6 15.3,13.7 13.4,15.6 19.3,21.5 20.6,22.8 21.2,23.5 31,13.7 29.1,11.8 		"/>
		<g>
			<path fill="#FFFFFF" d="M21.2,39.8C11,39.8,2.6,31.5,2.6,21.2S11,2.5,21.2,2.5s18.6,8.4,18.6,18.6S31.5,39.8,21.2,39.8z
				 M21.2,7.5c-7.5,0-13.6,6.1-13.6,13.6s6.1,13.6,13.6,13.6s13.6-6.1,13.6-13.6S28.8,7.5,21.2,7.5z"/>
		</g>
	</g>
</g>
<g id="Layer_3">
</g>
</svg>
