<?xml version="1.0" encoding="utf-8"?>
<!-- Generator: Adobe Illustrator 17.1.0, SVG Export Plug-In . SVG Version: 6.00 Build 0)  -->
<!DOCTYPE svg PUBLIC "-//W3C//DTD SVG 1.1//EN" "http://www.w3.org/Graphics/SVG/1.1/DTD/svg11.dtd">
<svg version="1.1" xmlns="http://www.w3.org/2000/svg" xmlns:xlink="http://www.w3.org/1999/xlink" x="0px" y="0px"
	 viewBox="0 0 42.5 42.5" enable-background="new 0 0 42.5 42.5" xml:space="preserve">
<g id="Layer_1">
</g>
<g id="Layer_2">
	<g>
		<g>
			<g display="none">
				<path display="inline" fill="#878E98" d="M21.2,39.7c-10.2,0-18.5-8.3-18.5-18.5S11.1,2.8,21.2,2.8c10.2,0,18.5,8.3,18.5,18.5
					S31.4,39.7,21.2,39.7z M21.2,5.8c-8.5,0-15.5,6.9-15.5,15.5s6.9,15.5,15.5,15.5s15.5-6.9,15.5-15.5S29.8,5.8,21.2,5.8z"/>
			</g>
			<path display="none" fill="#878E98" d="M30.8,19.5h-7.6v-7.6c0-1.1-0.9-2-2-2s-2,0.9-2,2v7.6h-7.6c-1.1,0-2,0.9-2,2s0.9,2,2,2
				h7.6v7.6c0,1.1,0.9,2,2,2s2-0.9,2-2v-7.6h7.6c1.1,0,2-0.9,2-2S31.9,19.5,30.8,19.5z"/>
			<polygon fill="#878E98" points="21.2,19.6 15.3,13.7 13.4,15.7 19.3,21.6 20.6,22.9 21.2,23.5 31,13.7 29.1,11.8 			"/>
			<circle fill="none" stroke="#878E98" stroke-width="5" stroke-miterlimit="10" cx="21.2" cy="21.2" r="16.1"/>
		</g>
	</g>
</g>
<g id="Layer_3">
</g>
</svg>
