<?xml version="1.0" encoding="utf-8"?>
<!-- Generator: Adobe Illustrator 17.1.0, SVG Export Plug-In . SVG Version: 6.00 Build 0)  -->
<!DOCTYPE svg PUBLIC "-//W3C//DTD SVG 1.1//EN" "http://www.w3.org/Graphics/SVG/1.1/DTD/svg11.dtd">
<svg version="1.1" xmlns="http://www.w3.org/2000/svg" xmlns:xlink="http://www.w3.org/1999/xlink" x="0px" y="0px"
	 viewBox="0 0 38.7 38.7" enable-background="new 0 0 38.7 38.7" xml:space="preserve">
<g id="Layer_1">
</g>
<g id="Layer_2">
	<path fill="#878E98" d="M36.3,22.3v-6l-4.7-0.8v0.2c-0.2-0.8-0.6-1.6-1-2.4l0,0l2.8-3.9l-4.2-4.2L25.3,8l0.1,0.1
		c-0.7-0.4-1.5-0.7-2.2-0.9l-0.8-4.7h-6l-0.8,4.7C14.8,7.4,14,7.7,13.3,8L9.5,5.3L5.2,9.5L8,13.4c-0.4,0.7-0.7,1.4-0.9,2.2l-4.6,0.8
		v6l4.7,0.8c0.2,0.8,0.6,1.5,0.9,2.2l-2.7,3.8l4.2,4.2l3.9-2.8c0.7,0.4,1.4,0.7,2.2,0.9l0.8,4.7h6l0.8-4.7h-0.1
		c0.8-0.2,1.5-0.6,2.2-0.9l0,0l3.9,2.8l4.2-4.2l-2.8-3.9l-0.1,0.1c0.4-0.8,0.7-1.5,1-2.4v0.1L36.3,22.3z M19.3,24.5
		c-2.8,0-5.1-2.3-5.1-5.1c0-2.8,2.3-5.1,5.1-5.1s5.1,2.3,5.1,5.1C24.4,22.2,22.1,24.5,19.3,24.5z"/>
</g>
<g id="Layer_3">
</g>
</svg>
